<svg width="232" height="220" viewBox="0 0 232 220" fill="none" xmlns="http://www.w3.org/2000/svg">
<path d="M155.618 0H157.76L157.046 4.29967L154.904 9.31596L154.191 13.6156V20.0651L156.332 30.0977L162.043 41.5635L169.181 49.4463L175.606 53.7459L183.458 56.6124L187.741 58.0456L187.027 59.4788L169.895 64.4951L155.618 70.228L137.772 78.8274L129.206 84.5603L122.781 89.5766L115.643 96.0261L109.218 103.909L101.366 117.524L112.074 115.375L129.206 109.642L142.769 104.625L158.474 101.042L169.895 99.6091H187.741L202.732 101.759L217.723 106.059L224.861 109.642V112.508L219.15 117.524L212.726 126.124L207.015 137.59L203.446 148.339L201.304 159.088V176.287L202.018 183.453L198.449 182.736L188.455 176.287L177.034 171.27L162.043 166.971L152.049 165.537H137.772L122.781 167.687L101.366 173.42L87.0891 174.853L69.9568 172.704L54.2522 170.554L42.8307 169.837L33.5507 171.987L27.1261 176.287L24.9846 179.153L24.2707 185.603L20.7015 184.169L7.8523 174.853L1.42769 170.554L0 165.537V156.938L2.85538 147.622L7.8523 139.739L15.7046 131.857L23.5569 126.84L35.6923 120.391L47.1138 111.792L56.3938 103.192L63.5322 93.8762L70.6707 83.127L79.2368 68.0782L88.5168 52.3127L95.6553 42.2801L103.508 32.9642L112.074 24.3648L122.781 16.4821L135.631 8.59935L149.194 2.14984L155.618 0ZM154.191 2.14984L142.769 7.16612L129.206 14.3322L117.071 22.9316L108.504 30.8143L101.366 37.9805L92.086 50.1629L82.806 65.2117L72.8122 83.127L67.1014 91.7264L58.5353 103.192L49.2553 112.508L37.1199 121.108L20.7015 129.707L13.5631 135.44L7.13845 143.322L3.56923 150.489L2.14154 157.655H3.56923L5.71076 150.489L10.7077 141.889L13.5631 142.606L23.5569 153.355L29.2677 160.521L25.6984 165.537H27.84L33.5507 161.238L42.1169 157.655L61.3907 152.638L72.8122 146.906L81.3783 140.456L89.2307 132.573L97.7968 119.674L107.077 103.909L113.501 95.3095L116.357 92.443V91.0098L119.212 89.5766L127.064 83.127L136.344 77.3941L147.766 71.6612L160.615 65.9283L177.747 60.1954L182.031 58.7622L180.603 57.329L178.461 56.6124H173.464L159.901 60.1954L157.046 59.4788L149.194 38.6971L142.769 20.7818L140.628 13.6156L147.052 11.4658L153.477 8.59935L155.618 2.14984H154.191ZM149.907 11.4658L142.769 14.3322L143.483 19.3485L153.477 47.2964L157.76 58.7622L162.757 58.0456L173.464 55.1792L169.895 52.3127L162.757 45.8632L156.332 35.8306L153.477 27.9479L152.049 17.9153V11.4658H149.907ZM170.609 101.759L153.477 103.909L139.914 107.492L116.357 116.091L99.9383 119.674L97.0829 123.257L96.3691 125.407H102.794L113.501 122.541L128.492 116.808H131.348L134.917 154.072V159.088L114.215 164.104L114.929 166.971H113.501V164.821L105.649 166.254L102.08 166.971H97.0829L94.2276 156.222L89.9445 136.873L88.5168 135.44L87.0891 136.873L87.803 143.322L93.5137 166.254V167.687L89.2307 168.404H77.0953L61.3907 166.254L60.6768 154.788H58.5353V165.537H39.9753L38.5476 161.238H37.1199L38.5476 167.687L39.2615 168.404L56.3938 169.121L79.2368 172.704H96.3691L109.932 169.837L124.209 165.537L133.489 164.104H155.618L169.895 166.971L183.458 171.987L192.024 176.287L199.877 181.303L199.163 170.554V161.954L201.304 148.339L204.874 137.59L210.584 126.124L216.295 118.241L221.292 112.508L222.72 111.792L222.006 109.642L209.157 105.342L199.163 103.192L186.314 101.759H170.609ZM129.206 118.241L111.36 124.691L100.652 126.84L94.2276 127.557L90.6583 132.573L91.3722 139.023L97.0829 164.104L99.2245 166.254L117.784 161.954L133.489 158.371L134.203 156.938L131.348 122.541L129.92 118.241H129.206ZM84.9476 139.023L77.8091 144.756L68.5291 150.489L62.8184 153.355L62.1045 156.222V164.104L63.5322 165.537L74.2399 166.971H91.3722L92.086 164.104L86.3753 140.456L84.9476 139.023ZM11.4215 143.322L7.13845 149.772L4.99692 155.505L4.28307 165.537L6.42461 171.987L19.2738 181.303H19.9877L21.4154 171.27L24.9846 164.104L27.84 160.521L21.4154 152.638L12.8492 143.322H11.4215ZM54.2522 155.505L39.9753 159.805V164.104L42.8307 164.821L57.1076 164.104V155.505H54.2522ZM2.14154 158.371L1.42769 159.088V164.821L2.85538 169.837L4.28307 169.121L2.85538 162.671V158.371H2.14154ZM34.9784 161.954L27.84 166.971L27.1261 169.837L37.1199 165.537L35.6923 161.954H34.9784ZM24.9846 166.254L22.843 171.27L21.4154 174.853V182.02L22.1292 183.453L23.5569 182.736V175.57L25.6984 168.404V166.254H24.9846ZM37.1199 166.971L34.2646 167.687L34.9784 169.837L37.8338 169.121L37.1199 166.971ZM32.8369 168.404L25.6984 171.987L24.9846 175.57L31.4092 171.27L33.5507 169.837L32.8369 168.404Z" fill="#221429"/>
<path d="M132.061 17.9155H134.916L143.483 38.6973L152.049 61.6289L151.335 63.7787L139.913 69.5116L129.92 75.2445L121.353 81.694L112.787 89.5767L109.932 90.2934L102.08 83.8438L96.3688 78.1109L90.658 73.0947L85.6611 68.0784L86.375 64.4953L93.5134 53.7461L101.366 43.7135L115.643 29.3813L124.923 22.2152L132.061 17.9155ZM132.061 20.0653L123.495 25.7982L115.643 32.2477L106.363 40.8471L99.938 48.0132L92.0857 58.7624L87.8027 65.2119L88.5165 69.5116L96.3688 75.9611L101.366 80.9774L107.076 85.9937L109.932 88.1435L112.787 86.7103L120.64 79.5442L132.061 71.6614L142.055 65.9285L149.907 62.3455L148.48 55.896L136.344 25.0816L134.203 20.0653H132.061Z" fill="#221429"/>
<path d="M82.0916 58.0459L82.8055 59.4792L72.8116 78.1111L65.6732 88.8603L60.6763 95.3098V93.1599L68.5286 80.9775L79.2362 62.3456L82.0916 58.0459Z" fill="#221429"/>
<path d="M82.8056 71.6615L85.6609 72.3781L94.2271 80.2609L101.366 86.7104L107.076 91.7267L107.79 94.5931L100.652 104.626L94.9409 114.658L89.944 125.407L87.0886 124.691L77.8086 116.808L69.9563 110.359L63.5317 104.626L66.3871 99.6094L71.384 93.1599L77.0948 83.8439L82.0917 72.3781L82.8056 71.6615ZM83.5194 73.8114L77.8086 85.2772L72.0979 95.3097L65.6733 103.909L66.3871 106.059L73.5256 111.792L81.3779 118.241L87.8025 123.258H89.2302L94.9409 111.075L101.366 100.326L105.649 94.5931V92.4433L99.9378 87.427L90.6579 78.8277L84.9471 73.8114H83.5194Z" fill="#221429"/>
<path d="M194.166 97.4595H202.018L214.154 100.326L225.575 105.342L232 109.642V111.075L226.289 116.091L219.864 123.258L212.726 134.007L209.871 139.74L209.157 137.59L215.581 126.124L223.434 116.091L228.431 111.075H229.858L227.003 108.209L216.295 103.192L203.446 99.6093L194.166 98.1761V97.4595Z" fill="#221429"/>
<path d="M60.6766 106.775L63.532 107.492L73.5258 116.091L81.3781 122.541L87.0889 127.557L86.375 131.857L79.9504 139.023L69.9566 145.472L62.1043 149.055L54.9658 151.205L52.1104 150.489L43.5443 134.006L39.2612 126.124V123.257L49.2551 116.808L59.9627 107.492L60.6766 106.775ZM60.6766 108.925L52.8243 116.091L45.6858 121.107L40.6889 124.69L42.1166 128.99L48.5412 140.456L53.5381 149.055L59.2489 148.339L67.815 144.756L76.3812 139.739L79.9504 136.873L85.6612 129.707L84.2335 126.84L76.3812 120.391L68.5289 113.225L63.532 108.925H60.6766Z" fill="#221429"/>
<path d="M158.473 108.925H183.458L195.593 111.075L206.301 113.942L210.584 116.091L209.87 119.675L205.587 125.407L201.304 132.574L196.307 146.189L194.166 156.938L193.452 167.688L189.883 166.971L180.603 163.388L162.757 159.805L139.2 159.088L138.486 155.505L136.344 122.541V113.942L142.769 111.792L158.473 108.925ZM167.753 110.359L153.477 111.792L139.2 114.658L138.486 115.375V126.841L140.627 156.938L159.187 157.655L169.895 159.088L182.03 161.955L190.596 165.538H192.024L192.738 153.355L195.593 141.89L199.163 133.29L203.446 125.407L209.156 118.241L207.015 116.091L193.452 112.508L184.172 111.075L167.753 110.359Z" fill="#221429"/>
<path d="M35.6917 125.407L38.5471 126.84L50.6824 149.772V151.922L33.5502 159.088L30.6948 159.805L25.6979 154.788L19.2733 146.905L13.5625 139.739L15.704 136.156L24.984 130.423L33.5502 126.124L35.6917 125.407ZM35.6917 126.84L23.5563 132.573L15.704 138.306L16.4179 141.173L23.5563 149.055L29.9809 156.938L33.5502 157.655L40.6886 154.072L49.2548 151.205L47.8271 146.905L38.5471 129.707L35.6917 126.84Z" fill="#221429"/>
</svg>
