<svg width="56" height="56" viewBox="0 0 56 56" fill="none" xmlns="http://www.w3.org/2000/svg">
<path d="M44.4484 56C43.2765 56 42.293 55.4892 41.4978 54.4675C40.7025 53.4884 40.1166 52.2752 39.7399 50.8278C39.3632 49.3805 39.1749 47.997 39.1749 46.6773C39.1749 44.1231 39.5306 41.2923 40.2422 38.1847C40.9537 35.0772 41.8326 31.9057 42.8789 28.6705C43.9671 25.4352 45.0762 22.3276 46.2063 19.3478C47.3782 16.3254 48.4245 13.6009 49.3453 11.1745C50.2661 8.748 50.9148 6.8111 51.2915 5.36374C51.3752 4.98062 51.438 4.64006 51.4798 4.34208C51.5217 4.00152 51.5426 3.72482 51.5426 3.51197C51.5426 2.74572 51.3124 2.3626 50.852 2.3626C50.1824 2.3626 49.1779 3.06499 47.8386 4.46978C46.4993 5.832 44.9925 7.70506 43.3184 10.0889C41.6861 12.4303 40.0538 15.0908 38.4215 18.0707C36.7892 21.0506 35.3244 24.1368 34.0269 27.3295C32.7713 30.4797 31.8924 33.5659 31.3901 36.5884C31.2227 37.6952 30.9297 38.5253 30.5112 39.0787C30.1345 39.6321 29.7579 39.9088 29.3812 39.9088C29.0463 39.9088 28.7534 39.6959 28.5022 39.2702C28.2511 38.8445 28.1256 38.2273 28.1256 37.4185C28.0837 34.0129 27.9791 30.6074 27.8117 27.2018C27.6442 23.7537 27.2676 20.4546 26.6816 17.3044C25.8027 12.4515 24.7982 9.00342 23.6682 6.96009C22.58 4.91676 21.4499 3.8951 20.278 3.8951C19.1898 3.8951 18.1226 4.57621 17.0762 5.93843C16.0717 7.25808 15.1091 9.02471 14.1883 11.2383C13.2676 13.4094 12.4514 15.7932 11.7399 18.39C11.0284 20.9867 10.4634 23.5621 10.0448 26.1163C9.66816 28.6705 9.47982 30.9479 9.47982 32.9487C9.47982 33.417 9.47982 33.8852 9.47982 34.3535C9.52168 34.7792 9.56353 35.1836 9.60538 35.5667C9.64723 35.7796 9.66816 36.0137 9.66816 36.2691C9.66816 36.4819 9.66816 36.6948 9.66816 36.9076C9.66816 37.8867 9.5426 38.7594 9.29148 39.5257C9.04036 40.2919 8.74739 40.675 8.41256 40.675C8.07773 40.675 7.76383 40.2919 7.47085 39.5257C7.13602 38.7594 6.86398 37.8016 6.65471 36.6522C6.44544 35.4603 6.27803 34.4599 6.15247 33.6511C6.06876 33.0551 5.88042 32.1612 5.58744 30.9692C5.33632 29.7773 5.02242 28.4789 4.64574 27.0741C4.26906 25.6268 3.8296 24.222 3.32735 22.8598C2.86697 21.455 2.36472 20.263 1.82063 19.2839C1.27653 18.2623 0.71151 17.6024 0.125561 17.3044C0.0418535 17.2193 0 17.1342 0 17.049C0 16.8362 0.209268 16.7085 0.627803 16.6659C1.08819 16.6233 1.40209 16.6446 1.56951 16.7298C2.44843 16.9852 3.22272 17.6237 3.89238 18.6454C4.60389 19.6245 5.21076 20.7951 5.713 22.1574C6.2571 23.477 6.71749 24.7967 7.09417 26.1163C7.47085 27.3934 7.78475 28.4576 8.03587 29.309C8.49626 26.3717 9.04036 23.477 9.66816 20.6249C10.3378 17.7301 11.2167 14.8993 12.3049 12.1323C13.8535 8.30103 15.3812 5.57659 16.8879 3.95895C18.3946 2.29875 19.8176 1.46864 21.157 1.46864C22.58 1.46864 23.8565 2.21361 24.9866 3.70354C26.1584 5.15089 27.142 7.0878 27.9372 9.51426C28.7743 11.8981 29.3393 14.4949 29.6323 17.3044C29.7997 18.7518 29.9043 20.3269 29.9462 22.0296C29.988 23.6899 30.009 25.3288 30.009 26.9464V31.927C30.009 32.6507 30.009 33.3105 30.009 33.9065C30.009 34.5025 30.0299 34.992 30.0717 35.3751C30.3647 34.3535 30.846 32.9274 31.5157 31.0969C32.1854 29.2239 33.0015 27.138 33.9641 24.8392C34.9268 22.4979 36.0149 20.0927 37.2287 17.6237C38.4425 15.1547 39.7399 12.7921 41.1211 10.5359C42.5441 8.23717 44.009 6.23641 45.5157 4.53364C47.0643 2.7883 48.6129 1.51121 50.1614 0.702397C51.0822 0.234132 51.9402 0 52.7354 0C53.6562 0 54.4305 0.276701 55.0583 0.830103C55.6861 1.34094 56 2.10719 56 3.12885C56 4.66135 55.6861 6.19385 55.0583 7.72634C54.4305 9.21627 53.6771 10.6849 52.7982 12.1323C51.9193 13.5796 51.1031 14.9844 50.3498 16.3466C49.0105 18.8157 47.6712 21.6678 46.3318 24.9031C44.9925 28.1383 43.8625 31.48 42.9417 34.9282C42.0628 38.3763 41.6233 41.6967 41.6233 44.8894C41.6233 45.9111 41.6652 46.9114 41.7489 47.8905C41.8744 48.8696 42.0628 49.8062 42.3139 50.7001C42.6906 52.0623 43.151 52.9989 43.6951 53.5097C44.281 54.0631 44.867 54.3398 45.4529 54.3398C46.0807 54.3398 46.6667 54.1482 47.2108 53.7651C47.7549 53.4246 48.1943 53.0414 48.5292 52.6157C48.864 52.2326 49.0105 51.9985 48.9686 51.9133C49.3453 51.7856 49.4918 51.8921 49.4081 52.2326C49.3244 52.6157 49.1569 52.9989 48.9058 53.382C48.6547 53.8077 48.4873 54.0631 48.4036 54.1482C46.9387 55.3827 45.6203 56 44.4484 56Z" fill="#FD2E35"/>
</svg>
