<svg width="260" height="237" viewBox="0 0 260 237" fill="none" xmlns="http://www.w3.org/2000/svg">
<path d="M165.079 0.000183105H175.397L184.339 2.756L195.344 8.26762L198.783 11.7124L200.847 13.7792V15.1572H202.222L205.661 21.3577L207.725 27.5583V37.8926L206.349 45.4711L204.286 50.2938L201.534 55.8054L198.783 58.5612L199.471 66.1397L202.91 65.4507L207.037 62.006L210.476 60.6281L212.54 58.5612L217.354 56.4943H231.111L238.677 58.5612L247.619 63.3839L251.058 66.8286L255.185 72.3403L257.937 79.9187V94.3868L256.561 99.8984H255.185L253.81 104.721L252.434 107.477V114.366L254.497 116.433L257.249 127.457V130.901H258.624L259.312 133.657L260 158.459V190.151H256.561L255.873 148.125L254.497 133.657L249.683 118.5L248.307 115.055V109.544L251.058 101.965L253.122 93.6978V82.6746L250.37 73.7182L245.556 67.5176L237.302 62.6949L231.111 60.6281H220.106L212.54 63.3839H211.164L210.476 65.4507L206.349 67.5176L203.598 71.6513L200.159 75.0961L197.407 79.9187L196.72 84.0525V95.0757L199.471 104.721L203.598 110.233V117.122L200.847 118.5L198.095 128.145L197.407 132.279H196.032L194.656 130.212V123.323L197.407 115.744L198.095 115.055L197.407 110.233L195.344 107.477L193.28 102.654V99.8984H191.905L191.217 96.4536V82.6746L193.28 77.8519L193.968 74.4071V69.5844L193.28 66.8286V60.6281L194.656 56.4943L198.095 50.9827L200.847 44.0932V27.5583L198.783 22.0467L197.407 20.6688V17.913L195.344 17.224L193.28 13.7792L185.026 7.57867L176.772 4.82285H165.079L158.201 7.57867L154.074 11.0234L151.323 14.4682L148.571 19.9798H147.196L145.82 24.8025L144.444 30.3141V41.3374L145.82 47.5379L147.196 50.2938V56.4943L142.381 70.9623L141.005 79.9187L139.63 82.6746L136.878 105.41L135.503 119.878L134.815 124.701L132.751 124.012V93.6978L134.815 82.6746L137.566 69.5844L140.317 59.9391L142.381 56.4943V53.0496L138.942 44.7821V30.3141L141.693 19.2909L142.381 17.913H143.757L145.132 13.7792L151.323 6.20076L158.201 2.06704L165.079 0.000183105Z" fill="#221429"/>
<path d="M4.81482 111.61H13.7566L19.2593 115.055L19.9471 118.5L24.0741 117.122L29.5768 116.433H41.2699L53.6509 121.256L56.4022 124.011L59.8413 126.767L65.344 134.346L66.7197 138.479V152.258L64.6562 159.837L59.8413 166.727L56.4022 170.86L53.6509 172.927L54.3387 179.817L58.4657 188.084L61.217 195.663L61.9048 199.796V208.064L59.1535 214.264H57.7778L56.4022 218.398L54.3387 221.154L52.963 228.043L52.2752 233.555L48.836 236.311L46.7725 237H38.5186L34.3916 234.933L30.9524 232.177L16.508 231.488L11.6931 225.976L10.3175 220.465L7.56615 217.02V215.642H6.19048L4.81482 211.508V200.485L7.56615 188.084L10.3175 181.195L12.381 176.372V171.549L9.62964 170.171L6.19048 167.415L2.75133 161.215L0.687832 155.703L0 155.014V142.613L2.06349 135.724L6.19048 129.523L8.94181 126.767V125.389L4.81482 122.634L0.687832 118.5V114.366L4.81482 111.61ZM31.6402 119.878L26.8254 121.256H21.3228L22.0106 127.456H14.4445L8.25398 136.413L6.19048 141.924V155.014L9.62964 163.282L14.4445 169.482L16.508 171.549H17.8836L19.2593 174.994L16.508 174.305L14.4445 181.195L11.0053 189.462L7.56615 200.485V211.508L9.62964 215.642L15.8201 222.532L21.3228 225.976L29.5768 228.732L35.0794 229.421L33.7037 230.11L35.0794 233.555L36.4551 234.244H46.7725L50.2117 232.177V223.221L55.0265 217.02L58.4657 210.131L59.1535 207.375V199.796L57.7778 194.285L53.6509 182.572L50.2117 174.994L50.8995 172.238L56.4022 166.038L58.4657 163.282L62.5927 152.258V140.546L57.7778 130.901L50.8995 124.7L44.0212 121.256L41.2699 119.878H31.6402Z" fill="#221429"/>
<path d="M92.1694 7.57835H107.302L114.868 10.3342L121.058 14.4679L125.185 19.2906L127.249 21.3574L129.312 26.1801L131.376 31.6917V42.026L128.624 50.9824L127.249 53.0493V57.8719L129.312 64.0725L131.376 72.3399V86.119H130L128.624 82.6742L126.561 70.962L123.81 62.6946L121.746 57.8719V54.4272L124.497 48.2266L125.185 44.0929V32.3807L123.122 26.1801L121.058 22.0464V20.6685L118.307 19.2906L114.18 15.8458L108.677 12.401L104.55 11.7121V10.3342L95.6085 11.0231L90.1059 13.7789L86.6667 17.2237H85.291L83.9154 19.9795L81.8519 23.4243L80.4762 27.558V46.1597L83.2275 52.3603L83.9154 53.0493L83.2275 57.8719L80.4762 67.5173L79.1006 84.7411L78.4127 129.523H74.2857L73.5979 113.677V84.0521L74.2857 72.3399L76.3492 62.6946L79.1006 56.494L79.7884 53.7382H78.4127V52.3603H77.0371L74.2857 44.0929V30.3138L76.3492 23.4243L81.164 16.5347L85.9789 11.0231L88.7302 10.3342V8.95626L92.1694 7.57835Z" fill="#221429"/>
<path d="M70.8459 148.814L79.7877 149.503L83.9147 150.881L95.6078 153.636L96.9835 155.014V158.459H98.3592V161.215H103.174L106.613 164.66L107.301 166.038V174.994L105.925 176.372L106.613 183.261H101.798L95.6078 181.195L85.9782 178.439L79.7877 175.683L77.7242 170.86V168.104H72.2216L68.7824 165.349L67.4067 163.282V157.77L68.7824 155.014H70.8459V163.282L72.2216 163.971V165.349H75.6607L72.9094 157.77V155.014H71.5337L70.8459 148.814Z" fill="#221429"/>
<path d="M4.81482 111.61H13.7566L17.8836 114.366L18.5715 118.5H17.1958V117.122L13.0688 116.433H4.81482L6.19048 119.189L12.381 122.634L17.8836 124.7L20.6349 126.078V127.456H14.4445L13.0688 130.212L8.25398 137.79L6.87831 141.924V155.014L10.3175 163.282L15.1323 169.482L18.5715 172.927L19.2593 174.994L16.508 174.305L15.8201 178.439L11.0053 192.218L8.25398 200.485V211.508L10.3175 215.642L15.8201 221.843L23.3863 226.665L27.5133 228.043V228.732L21.3228 228.043L17.1958 226.665L15.8201 225.976L19.2593 229.421L24.7619 230.11V230.799H15.8201L11.6931 225.976L10.3175 220.465L7.56615 217.02V215.642H6.19048L4.81482 211.508V200.485L7.56615 188.084L10.3175 181.195L12.381 176.372V171.549L9.62964 170.171L6.19048 167.415L2.75133 161.215L0.687832 155.703L0 155.014V142.613L2.06349 135.724L6.19048 129.523L8.94181 126.767V125.389L4.81482 122.634L0.687832 118.5V114.366L4.81482 111.61Z" fill="#221429"/>
<path d="M217.354 56.494H231.111L238.677 58.5608L247.619 63.3835L251.058 66.8283L255.185 72.3399L257.936 79.9184V94.3864L256.561 99.898H255.185L253.809 104.721L252.434 107.477V114.366L254.497 116.433L257.248 127.456V130.901H258.624L259.312 133.657L260 158.459V190.151H256.561L255.873 148.125L254.497 133.657L249.682 118.5L248.307 115.055V109.543L251.058 101.965L253.121 93.6975V82.6742L250.37 73.7178L245.555 67.5172L237.301 62.6946L231.111 60.6277H220.105L215.291 62.0056V60.6277L210.476 61.3167L211.164 59.2498L217.354 56.494Z" fill="#221429"/>
<path d="M213.227 60.6279H215.29V62.0058L211.163 63.3837L210.476 65.4506L206.349 67.5174L203.597 71.6511L200.158 75.0959L197.407 79.9186L196.719 84.0523V95.0756L199.47 104.721L203.597 110.233V117.122L200.846 118.5L198.095 128.145L197.407 132.279H196.031L194.655 130.212V123.323L197.407 115.744L198.095 115.055L197.407 110.233L195.343 107.477L193.28 102.654V99.8982H191.904L191.216 96.4535V82.6744L196.031 72.3401L196.719 67.5174L195.343 66.1395V64.0727H198.095L199.47 66.1395L202.909 65.4506L207.036 62.0058L213.227 60.6279Z" fill="#221429"/>
<path d="M75.6611 152.258H81.8516L88.0421 153.636L94.2326 155.703L95.6082 158.459V161.215L92.1691 163.971V170.171L92.8569 173.616H94.2326L95.6082 177.061L102.487 178.439L103.174 181.195L98.3596 180.506L86.6664 176.372L81.1638 174.305L76.349 161.215L75.6611 157.77L78.4125 158.459L76.349 153.636L75.6611 152.258Z" fill="#FD2E35"/>
<path d="M78.4127 52.3605H81.164V55.1163H83.9154L81.164 66.1396L80.4762 67.5175L79.1006 84.7413L78.4127 129.523H74.2857L73.5979 113.677V84.0523L74.2857 72.3401L76.3492 62.6948L79.1006 56.4942L79.7884 53.7384H78.4127V52.3605Z" fill="#221429"/>
<path d="M144.444 44.7819L145.82 47.5377L147.196 50.2935V56.4941L142.381 70.9621L141.005 79.9185L139.63 82.6743L136.878 105.41L135.503 119.878L134.815 124.7L132.751 124.011V93.6975L134.815 82.6743L137.566 69.5842L140.317 59.9388L142.381 56.4941V53.0493V50.9824L143.757 53.7382H146.508L144.444 50.9824V44.7819Z" fill="#221429"/>
<path d="M217.354 56.494H231.111L238.677 58.5608L247.619 63.3835L251.058 66.8283L255.185 72.3399L257.936 79.9184V91.6306L256.561 94.3864H255.185L255.873 98.5201H253.121V82.6742L250.37 73.7178L245.555 67.5172L237.301 62.6946L231.111 60.6277H220.105L215.291 62.0056V60.6277L210.476 61.3167L211.164 59.2498L217.354 56.494Z" fill="#221429"/>
<path d="M51.5871 170.86H53.6506V176.372L55.7141 183.262L58.4654 188.084L61.2167 195.663L61.9045 199.797V208.064L59.1532 214.265H57.7775L56.4019 218.398L54.3384 221.154L52.9627 228.044L52.2749 233.555L48.8357 236.311L46.7722 237H38.5183L34.3913 234.933L30.9521 232.177L16.5077 231.488L19.259 230.11L15.8198 227.355V225.977L23.386 228.044H25.4495L22.6981 226.666L24.0738 225.977L29.5765 228.044L37.1426 228.733L35.0791 230.11H33.7034L35.0791 233.555H46.7722L49.5236 232.177V223.221L54.3384 217.02L57.7775 210.131L58.4654 207.375V199.797L57.0897 194.285L52.9627 182.573L49.5236 174.994L50.2114 172.238L51.5871 170.86Z" fill="#221429"/>
<path d="M193.969 14.4682L196.72 15.1572V17.2241H198.096L198.783 19.9799H200.159L200.847 18.602L202.91 23.4246L204.286 30.3142V39.9595H205.662V25.4915L204.286 23.4246L203.598 18.602L204.974 19.2909L207.725 27.5584V37.8927L206.35 45.4711L204.286 50.2938L201.535 55.8054L198.783 58.5612V65.4508L198.096 64.0729H195.344L197.408 67.5176L196.032 73.7182L194.656 76.474L193.969 74.4072V69.5845L193.281 66.8287V60.6281L194.656 56.4944L198.096 50.9828L200.847 44.0932V27.5584L198.783 22.0467L197.408 20.6688V17.913L195.344 17.2241L193.969 14.4682Z" fill="#221429"/>
<path d="M196.032 117.811L196.72 119.189L195.344 123.323V129.523L196.032 132.279H197.407L198.095 126.078L198.783 128.834L197.407 138.48L196.032 181.884H193.28L192.593 176.372V137.102L193.968 122.634L196.032 117.811Z" fill="#221429"/>
<path d="M130 29.6251L131.376 31.6919V42.0262L128.625 50.9826L127.249 53.0495V57.8721L129.312 64.0727L131.376 72.3402V86.1192H130L128.625 82.6744L126.561 70.9622L123.81 62.6948L121.746 57.8721V54.4274L124.498 48.2268L125.185 44.0931V30.314L126.561 31.003L127.249 44.0931H128.625L129.312 41.3373L130 29.6251Z" fill="#221429"/>
<path d="M13.0679 178.439H14.4436L13.7558 183.95L8.25312 200.485V211.508L10.3166 215.642L15.8193 221.843L23.3854 226.665L27.5124 228.043V228.732L21.3219 228.043L17.1949 226.665L15.8193 225.976L19.2584 229.421L24.7611 230.11V230.799H15.8193L11.6923 225.976L10.3166 220.465L7.56529 217.02V215.642H6.18963L4.81396 211.508V200.485L7.56529 188.084L12.3801 179.128L13.0679 178.439Z" fill="#221429"/>
<path d="M17.8836 114.366L19.9471 116.433V118.5L24.0741 117.122H39.8942L44.0212 118.5L43.3333 119.878L31.6402 120.567L26.8254 121.945H22.6984L21.3227 121.256L22.0106 127.456H20.6349V126.078L17.1958 124.701L9.6296 121.945L5.50262 119.189L4.12695 116.433L4.81478 115.744H13.0688L17.1958 117.122V118.5H18.5714L17.8836 114.366Z" fill="#221429"/>
<path d="M213.227 60.6279H215.291V62.0058L211.164 63.3837L210.476 65.4506L206.349 67.5174L203.597 71.6511L200.158 75.0959L196.031 82.6744L194.656 93.0087L191.904 93.6976V84.0523L193.28 77.8517L196.031 72.3401L196.719 67.5174L195.343 66.1395V64.0727H198.095L199.47 66.1395L202.91 65.4506L207.037 62.0058L213.227 60.6279Z" fill="#221429"/>
<path d="M4.81424 111.61H13.7561L17.883 114.366L18.5709 118.5H17.1952V117.122L13.0682 116.433H4.81424L6.18991 119.189L12.3804 122.634L17.883 124.7L20.6344 126.078V127.456H15.1317L12.3804 126.767V128.834H11.0047L10.3169 131.59H8.2534V130.212H9.62906L10.3169 124.7L6.18991 124.011L0.687256 118.5V114.366L4.81424 111.61Z" fill="#221429"/>
<path d="M143.068 22.7356H144.444V41.3374L145.132 50.9827L146.508 53.7385H143.756L141.005 49.6048L138.941 44.7821V30.3141L140.317 26.8694L143.068 25.4915V22.7356Z" fill="#221429"/>
<path d="M95.6081 162.593H101.799L102.486 165.349L104.55 166.038L105.238 167.416V174.994L103.174 176.372L97.6716 175.683L94.2324 170.861V163.971L95.6081 162.593Z" fill="#221429"/>
<path d="M77.0362 22.7356L77.7241 25.4915L77.0362 27.5583H75.6606V33.0699L79.7876 32.381L80.4754 46.16L83.2267 52.3606L83.9146 55.1164H81.1632V52.3606H77.0362L74.2849 44.0932V30.3141L76.3484 23.4246L77.0362 22.7356Z" fill="#221429"/>
<path d="M127.248 76.4739L128.624 78.5408L129.999 86.1193H131.375V77.1629H132.063L132.751 84.7414L133.439 86.8082L134.126 82.6745H134.814V88.1861L133.439 93.6978L132.751 124.012H134.126L135.502 115.055H136.19L135.502 126.079L134.814 137.791L132.751 137.102L132.063 133.657L131.375 99.8983L129.999 89.564L127.936 84.0524L127.248 76.4739Z" fill="#221429"/>
<path d="M137.566 86.808H138.254V93.0086L135.503 119.878L134.815 124.7L132.751 124.012V93.6976L134.127 91.6307L134.815 94.3865L134.127 97.8313H135.503V92.3197H136.878L137.566 86.808Z" fill="#221429"/>
<path d="M118.995 19.9797L121.058 20.6686L125.185 28.9361L125.873 32.3808V44.093L124.498 50.2936L121.746 57.1831H121.058L121.746 45.4709L122.434 37.8925L121.058 26.1803L118.995 23.4244V19.9797Z" fill="#221429"/>
<path d="M95.6079 159.148L96.2958 161.904H100.423V162.593L95.6079 163.282L94.9201 163.971V170.861L97.6714 174.994L103.174 175.683L104.55 174.994V167.416L101.798 163.971H103.862L104.55 164.66L105.925 163.282L107.301 166.038V174.994L105.925 176.372L106.613 183.262L105.238 180.506L103.862 178.439L102.486 180.506V178.439H97.6714L94.2323 174.994V173.616H92.8566L91.481 170.172V163.971L94.2323 161.215H95.6079V159.148Z" fill="#221429"/>
<path d="M95.6083 8.26743H110.053L119.682 13.0901L121.746 15.157L122.434 18.6017L121.746 19.9796L118.995 18.6017L116.931 16.5349V15.157H112.804L108.677 12.4011L104.55 11.7122V10.3343L92.8569 11.0232V8.95638L95.6083 8.26743Z" fill="#221429"/>
<path d="M12.3802 186.017L13.0681 188.773L11.0046 204.619V212.198L12.3802 217.02L14.4437 217.709L15.1316 219.776L16.5072 220.465V219.087H19.2586V220.465L17.8829 221.843L17.1951 223.221L11.6924 218.398L8.94109 214.953L7.56543 211.509V200.485L12.3802 186.017Z" fill="#221429"/>
<path d="M130 29.6251L131.375 31.6919V42.0262L128.624 50.9826L127.248 53.0495V57.8721L128.624 61.3169L127.936 64.0727V62.6948H125.873L125.185 53.7384H123.121L123.809 50.2937L125.185 44.0931V30.314L126.56 31.003L127.248 44.0931H128.624L129.312 41.3373L130 29.6251Z" fill="#221429"/>
<path d="M155.45 8.26758L156.825 8.95653L153.386 12.4013L151.323 14.4682L148.571 19.9798H147.196L145.82 24.8025L144.444 26.1804V22.7356H143.069V25.4914L139.629 27.5583L141.693 19.2908L142.381 17.9129H143.756L145.132 13.7792L149.259 8.95653L149.947 10.3344L149.259 12.4013L152.01 11.7123V10.3344L155.45 8.26758Z" fill="#221429"/>
<path d="M169.207 33.7585H174.021L175.397 35.1364L176.773 42.026V46.8486L175.397 47.5376H171.27L169.207 44.0928V33.7585Z" fill="#221429"/>
<path d="M15.8198 225.977L23.386 228.044H25.4495L22.6981 226.666L24.0738 225.977L29.5765 228.044L37.1426 228.733L35.0791 230.11H33.7034L35.0791 233.555L44.7087 234.244V235.622L46.7722 237H38.5183L34.3913 234.933L30.9521 232.177L16.5077 231.488L19.259 230.11L15.8198 227.355V225.977Z" fill="#221429"/>
<path d="M165.767 0.68895H174.021L171.27 2.75581L166.455 4.13371L158.201 7.57848L153.386 10.3343H152.01V11.7122L149.259 12.4012L149.947 7.57848L154.074 4.13371L160.264 1.3779L165.767 0.68895Z" fill="#221429"/>
<path d="M73.5979 84.0521H74.2857L74.9736 112.988L76.3492 115.055V118.5H77.7249V103.343H78.4127V129.523H74.2857L73.5979 113.677V84.0521Z" fill="#221429"/>
<path d="M70.8464 148.814L79.7882 149.503L83.9152 150.881L95.6084 153.636L96.984 155.014V158.459H98.3597V161.215H103.175L105.238 162.593L104.55 165.349L100.423 162.593L96.2962 161.904L94.9205 158.459L94.2327 155.703L88.7301 155.014L83.9152 153.636L72.9099 150.881L73.5978 155.703L71.5343 155.014L70.8464 148.814Z" fill="#221429"/>
<path d="M217.354 56.494H231.111L237.301 57.8719L234.55 60.6277H236.613V62.0056L231.111 60.6277H220.105L215.291 62.0056V60.6277L210.476 61.3167L211.164 59.2498L217.354 56.494Z" fill="#221429"/>
<path d="M257.249 91.6308L257.937 94.3866L256.561 99.8982H255.186L253.81 104.721L252.434 107.477V114.366L254.498 116.433L253.81 119.189L252.434 117.811V115.744H250.371V117.122L251.747 117.811L250.371 119.878L248.307 115.055V109.544L251.059 101.965L253.122 93.6976H253.81V98.5203L255.186 97.8313V94.3866L256.561 93.6976L257.249 91.6308Z" fill="#221429"/>
<path d="M95.608 10.3343H104.55V11.7122H108.677L112.804 14.468V15.157H107.989L105.925 14.468H95.608L93.5445 15.8459H90.7932V17.2238L85.2905 18.6017V17.2238L92.1688 11.7122L95.608 10.3343Z" fill="#221429"/>
<path d="M196.032 147.436H196.72V161.904L196.032 181.883H193.28L192.593 176.372V153.636H193.28V163.282H194.656L195.344 159.837L196.032 147.436Z" fill="#221429"/>
<path d="M154.761 31.6918H158.201L160.264 36.5145V44.7819H154.761L153.386 39.9592V33.0697L154.761 31.6918Z" fill="#221429"/>
<path d="M51.5872 170.86H53.6507V176.372L55.7142 183.262L58.4655 188.084L61.2168 195.663V204.619L59.8412 203.241L58.4655 197.041L54.3385 186.706L51.5872 179.128L49.5237 174.994L50.2115 172.238L51.5872 170.86Z" fill="#221429"/>
<path d="M4.81478 115.744H13.0688L15.8201 117.811V119.189H17.1958L19.2592 123.323L19.9471 126.078L9.62961 121.945L5.50262 119.189L4.12695 116.433L4.81478 115.744Z" fill="#221429"/>
<path d="M257.936 130.901L259.312 133.657L260 158.459V190.151H256.561V163.971H257.249L257.936 186.017L258.624 178.439V159.837L257.936 130.901Z" fill="#221429"/>
<path d="M191.904 81.2966L192.592 84.0524L191.904 93.6978L193.968 93.0088L195.343 82.6745L196.719 81.2966V95.0757L198.782 101.965V104.721L196.031 104.032L195.343 102.654H193.28V99.8984H191.904L191.216 96.4536V82.6745L191.904 81.2966Z" fill="#221429"/>
<path d="M2.75049 159.837L4.81398 160.526V162.593L8.25314 163.971V165.349H9.6288L8.94097 168.794L13.068 170.171L12.3801 167.416L17.8828 171.549L19.2584 174.994L16.5071 174.305L15.8193 178.439L14.4436 181.195V178.439L12.3801 179.817L11.0045 182.573L10.3166 181.195L12.3801 176.372V171.549L9.6288 170.171L6.18965 167.416L2.75049 161.215V159.837Z" fill="#221429"/>
<path d="M207.037 84.7413L210.476 85.4303L212.539 90.9419V98.5204H207.037L205.661 86.1192L207.037 84.7413Z" fill="#221429"/>
<path d="M221.481 85.4301H225.608L226.984 92.3196V97.8313L226.296 98.5202H222.169L220.793 96.4534V86.1191L221.481 85.4301Z" fill="#221429"/>
<path d="M78.4119 52.3605H81.1632V55.1163H83.9146L81.1632 66.1396H79.0997L76.3484 66.8285L75.6606 77.1628L74.2849 79.2297V72.3401L76.3484 62.6948L79.0997 56.4942L79.7876 53.7384H78.4119V52.3605Z" fill="#221429"/>
<path d="M101.799 33.0698H105.926L107.301 37.8924V44.782L101.111 44.093V33.7587L101.799 33.0698Z" fill="#221429"/>
<path d="M203.598 18.6017L204.973 19.2907L207.725 27.5581V37.8924L206.349 45.4709L204.286 50.2936L201.534 55.8052L199.471 57.1831V53.0494L202.222 51.6715L203.598 45.4709L204.973 40.6482L205.661 25.4912L204.286 23.4244L203.598 18.6017Z" fill="#221429"/>
<path d="M193.968 101.965L196.031 102.654V104.032L200.158 105.41L203.597 110.232V117.122L199.47 117.811L198.783 115.744L200.158 115.055L201.534 111.61L198.095 110.921L195.343 107.477L193.968 104.032V101.965Z" fill="#221429"/>
<path d="M13.7566 220.465L21.3228 225.288L27.5132 228.043V228.732L21.3228 228.043L17.1958 226.665L15.8201 225.976L19.2593 229.421L24.7619 230.11V230.799H15.8201L11.6931 225.976V222.532L13.7566 223.221V220.465Z" fill="#221429"/>
<path d="M89.4175 32.381H93.5445L94.9201 35.1368V43.4042H89.4175V32.381Z" fill="#221429"/>
<path d="M52.2747 131.59H55.7139L58.4652 136.413V137.791H59.8409L60.5287 142.613H55.7139L52.2747 136.413L51.5869 132.968L52.2747 131.59Z" fill="#221429"/>
<path d="M196.031 117.811L196.719 119.189L195.343 123.323V129.523L196.031 132.279H197.407L198.095 126.078L198.783 128.834L196.719 144.68L195.343 145.369V143.302H193.968V122.634L196.031 117.811Z" fill="#221429"/>
<path d="M6.87802 140.546H7.56585V144.68L9.62934 143.991V160.526L11.005 161.215L9.62934 163.282L6.19019 155.014V141.924L6.87802 140.546Z" fill="#221429"/>
<path d="M196.72 56.494H197.408L198.783 62.6946L198.096 65.4504V64.0725H195.344L197.408 67.5172L196.032 73.7178L194.656 76.4736L193.969 74.4068V69.5841L193.281 66.8283V60.6277L194.656 57.8719L196.72 56.494Z" fill="#221429"/>
<path d="M60.5294 156.392H61.2172L61.905 159.837L62.5929 158.459H64.6564L63.2807 161.904L59.1537 167.416L56.4024 170.86L53.6511 172.238V170.86L52.2754 170.171L57.778 163.282L60.5294 156.392Z" fill="#221429"/>
<path d="M94.9207 164.66L99.0476 165.349V166.727L101.111 167.416V174.994L96.9841 174.305L95.6085 172.927L94.9207 169.482V164.66ZM101.111 166.038H102.487V167.416H101.111V166.038Z" fill="#221429"/>
<path d="M128.624 64.0726L129.999 66.1395L131.375 72.34V86.1191H129.999L128.624 82.6743L127.248 76.4738L127.936 73.7179L128.624 66.8284V64.0726Z" fill="#221429"/>
<path d="M193.968 14.4682L196.719 15.1572V17.2241H198.095L198.783 19.9799H200.158L200.846 18.602L202.91 23.4246L202.222 47.538H200.846L200.158 49.6049L199.47 48.2269L200.846 44.0932V27.5584L198.783 22.0467L197.407 20.6688V17.913L195.343 17.2241L193.968 14.4682Z" fill="#221429"/>
<path d="M12.3802 186.017L13.0681 188.773L11.0046 199.796H9.62892V210.82L10.3168 215.642L8.94109 214.953L7.56543 211.509V200.485L12.3802 186.017Z" fill="#221429"/>
<path d="M58.4652 197.041L59.8409 198.419L60.5287 203.241L61.2165 199.796H61.9044V208.064L59.153 214.264H57.7774L56.4017 218.398L55.0261 219.087L53.6504 217.709L57.7774 210.131L58.4652 207.375V197.041Z" fill="#221429"/>
<path d="M255.873 126.078L257.249 127.456L258.624 137.102V144.68H257.936V141.235H256.561V148.125H255.873L254.497 131.59L255.873 126.078Z" fill="#221429"/>
<path d="M21.3228 121.256L24.7619 121.945L22.6984 122.634L23.3863 128.834L21.3228 130.901L11.6931 132.279L13.0688 129.523L14.4444 127.456H22.0106L21.3228 121.256Z" fill="#221429"/>
<path d="M10.3174 111.61L15.1323 112.299L18.5714 115.744V118.5H17.1958V117.122L13.7566 115.744L4.12695 115.055L4.81478 112.988L10.3174 111.61Z" fill="#221429"/>
<path d="M213.227 60.6279H215.291V62.0058L211.164 63.3837L210.476 65.4506L206.349 67.5174L203.598 71.6511L202.91 70.2732L203.598 66.8285L201.534 66.1395L207.037 62.0058L213.227 60.6279Z" fill="#221429"/>
<path d="M202.222 18.6017H203.598L205.661 24.1133L206.349 25.4912L205.661 39.9593H204.286L203.598 30.3139L202.222 23.4244V18.6017Z" fill="#221429"/>
<path d="M1.37549 141.924H2.06332L2.75115 148.125L3.43898 142.613L5.50248 143.302L4.81465 150.881L3.43898 152.948L4.81465 153.637V157.77L5.50248 159.837H2.75115L1.37549 153.637V141.924Z" fill="#221429"/>
<path d="M127.248 76.4739L128.624 78.5408L129.999 86.1193H131.375V77.1629H132.063L132.751 84.7414L133.439 86.8082L134.126 82.6745H134.814V88.1861L133.439 93.6978L131.375 93.0088L127.936 84.0524L127.248 76.4739Z" fill="#221429"/>
<path d="M246.243 68.2065L249.682 71.6513L251.746 76.474L253.809 82.6746V93.6978H253.121L252.433 88.8751L251.058 86.8083L250.37 81.2967L251.746 79.2298H250.37V75.785H248.994L248.306 72.3403L246.243 71.6513V68.2065Z" fill="#221429"/>
<path d="M59.8406 128.145L63.2797 131.59L65.3432 134.346L66.7189 138.479V152.258L65.3432 155.014L66.0311 144.68H64.6554V140.546H63.2797V135.724L63.9676 134.346L61.2162 132.968L60.5284 130.212L59.8406 128.145Z" fill="#221429"/>
<path d="M134.815 82.6741H136.191V85.4299L138.254 84.741L137.566 90.9416L136.878 92.3195H135.503L136.191 96.4532L135.503 97.8311H134.127V105.41H133.439V95.0753L134.127 92.3195L134.815 82.6741Z" fill="#221429"/>
<path d="M17.8832 172.238L25.4493 174.305L26.825 176.372L17.8832 177.061L17.1953 182.573L13.0684 185.329L15.1319 178.439L16.5075 174.305L19.2588 174.994L17.8832 172.238Z" fill="#221429"/>
<path d="M24.0737 117.122H39.8938L44.0208 118.5L43.3329 119.878L28.8885 120.567L29.5763 118.5H22.698L24.0737 117.122Z" fill="#221429"/>
<path d="M114.18 15.157H116.931L120.37 19.2907L121.746 19.9797V15.846L126.561 19.9797L129.312 26.1803L130 28.9361H127.249L124.497 21.3576L121.746 20.6686L121.058 22.0465V20.6686L118.307 19.2907L114.18 15.846V15.157Z" fill="#221429"/>
<path d="M165.079 0H175.397L180.211 1.37791L179.524 3.44477H178.148V4.82267L166.455 4.13372L167.143 2.75581L172.645 1.37791H163.016L165.079 0Z" fill="#221429"/>
<path d="M74.2849 101.965L75.6609 104.721L77.7249 104.032V118.499H76.3489L74.9729 113.677L74.2849 112.988V101.965Z" fill="#221429"/>
<path d="M125.185 44.0931H125.873V49.6047H127.936L128.624 47.5379L129.312 48.9158L127.248 53.0495V57.8722L128.624 61.3169L127.936 64.0728V62.6949H125.873L125.185 53.7385H123.121L123.809 50.2937L125.185 44.0931Z" fill="#221429"/>
<path d="M15.8198 225.977L23.386 228.044L30.9521 229.422L32.3278 232.866L30.9521 232.177L16.5077 231.488L19.259 230.11L15.8198 227.355V225.977Z" fill="#221429"/>
<path d="M17.8829 130.901L22.0099 131.59L19.2586 132.968L16.5072 134.346V132.279H13.7559L13.0681 137.102L10.3168 137.791V140.546H7.56543L8.25326 136.413L11.0046 132.279L17.8829 130.901Z" fill="#221429"/>
<path d="M75.6609 78.5406H76.3489L77.7249 85.43V95.0751L75.6609 97.8308L74.2849 88.8747L74.9729 81.2964L75.6609 78.5406Z" fill="#221429"/>
<path d="M155.45 8.26743L156.825 8.95638L153.386 12.4011L151.323 14.468L148.571 19.9796H147.196L145.82 24.8023L145.132 23.4244L146.508 17.9128L147.883 15.8459L148.571 13.7791L146.508 13.0901L147.883 10.3343L149.947 8.95638L149.259 12.4011L152.01 11.7122V10.3343L155.45 8.26743Z" fill="#221429"/>
<path d="M92.1689 7.57848H107.301V8.26743L95.6081 8.95638L93.5446 10.3343L94.2324 11.7122L90.1054 13.7791L88.7298 14.468L88.0419 11.7122L84.6028 13.0901L86.6663 10.3343H88.7298V8.95638L92.1689 7.57848Z" fill="#221429"/>
<path d="M158.889 3.44476H160.264L160.952 6.20058L153.386 10.3343H152.01V11.7122L149.259 12.4012L149.947 8.95639L154.074 5.51162L158.889 3.44476Z" fill="#221429"/>
<path d="M4.81425 111.61H10.3169V112.299L4.81425 112.988V114.366L13.7561 115.055L14.4439 116.433H4.81425L5.50208 119.189H3.43858L2.75075 120.567L0.687256 118.5V114.366L4.81425 111.61Z" fill="#221429"/>
<path d="M132.751 108.166H133.439L134.127 112.988H135.503V108.166H136.191V115.055L134.815 124.7L132.751 124.011V108.166Z" fill="#221429"/>
<path d="M77.0362 22.7356L77.7241 25.4915L77.0362 27.5583H75.6606L76.3484 45.4711L77.7241 48.2269L77.0362 50.2938H78.4119V52.3606H77.0362L74.2849 44.0932V30.3141L76.3484 23.4246L77.0362 22.7356Z" fill="#221429"/>
<path d="M141.693 63.3839L143.068 64.0728L142.381 67.5176L141.693 73.7181L141.005 75.785L138.941 76.474L137.566 79.2298H136.878L137.566 74.4071L138.941 71.6513V68.2065H140.317V64.0728L141.693 63.3839Z" fill="#221429"/>
<path d="M144.444 44.7819L145.82 47.5377L147.196 50.2935V56.4941L146.508 58.5609L143.069 59.9388L142.381 53.0493V50.9824L143.757 53.7382H146.508L144.444 50.9824V44.7819Z" fill="#221429"/>
<path d="M197.407 12.4011L200.846 13.779V15.157H202.222L203.598 18.6017H202.222L201.534 21.3575L198.783 19.9796L198.095 17.2238H196.72V15.157H195.344L194.656 13.0901L197.407 12.4011Z" fill="#221429"/>
<path d="M13.0686 178.439H14.4443L13.7565 183.95L11.0051 190.84L9.62948 191.529L8.94165 185.328L12.3808 179.128L13.0686 178.439Z" fill="#221429"/>
<path d="M253.121 70.2733L255.185 72.3401L256.56 75.0959L255.872 77.8517L254.497 78.5407V92.3198H253.809L253.121 82.6744L251.058 75.0959L253.121 73.0291V70.2733Z" fill="#221429"/>
<path d="M95.6079 159.148L96.2958 161.904H100.423V162.593L95.6079 163.282L94.9201 163.971L94.2323 172.927L92.1688 172.238L91.481 170.172V163.971L94.2323 161.215H95.6079V159.148Z" fill="#221429"/>
<path d="M95.6081 162.593H101.799L102.486 165.349L104.55 166.038V167.416H102.486V166.038H101.111L100.423 167.416L99.0472 166.727V165.349L96.2959 166.038V164.66H94.9203L95.6081 171.549L94.2324 170.861V163.971L95.6081 162.593Z" fill="#221429"/>
<path d="M12.3809 126.768L15.1323 127.456L8.94177 136.413L6.87828 141.924L4.81478 141.236L4.12695 138.48H6.19045L8.25394 131.59L10.3174 130.901L11.0053 128.834H12.3809V126.768Z" fill="#221429"/>
<path d="M71.5341 156.392H72.9098L75.6611 163.971V165.349H72.2219V163.971L70.1584 163.282V157.77L71.5341 156.392Z" fill="#221429"/>
<path d="M137.565 86.808H138.253V93.0086L137.565 99.8982H136.19V104.721L134.126 105.41V97.8313H135.502V92.3197H136.878L137.565 86.808Z" fill="#221429"/>
<path d="M207.037 84.7413L210.476 85.4303L212.539 90.9419V98.5204H207.037L207.724 95.7646L208.412 97.1425L211.851 97.8314L211.164 93.0088L209.788 92.3198L209.1 86.1192H207.037V92.3198H206.349L205.661 86.1192L207.037 84.7413Z" fill="#221429"/>
<path d="M194.656 75.7847L195.344 78.5405L194.656 81.2962H193.28L193.968 86.8077L195.344 84.052L194.656 93.0081L191.904 93.697V84.052L193.28 77.8515L194.656 75.7847Z" fill="#221429"/>
<path d="M103.174 177.061L105.925 180.506V183.262L98.3591 182.573L94.2321 180.506L90.793 179.817L92.8565 178.439L98.3591 179.817L103.174 181.195V177.061Z" fill="#221429"/>
<path d="M192.593 153.636H193.281L193.969 177.749H195.345V174.305H196.033V181.883H193.281L192.593 176.371V153.636Z" fill="#221429"/>
<path d="M62.5925 144.68H63.2803L63.9681 153.637L65.3438 152.259V158.459H62.5925L61.9046 160.526L61.2168 159.837V153.637L61.9046 152.259L62.5925 144.68Z" fill="#221429"/>
<path d="M220.105 59.9387H231.111L238.677 62.6945L245.555 66.8282V68.8951L244.867 67.5172L241.428 66.8282V65.4503L237.301 64.7614L236.613 63.3835L230.423 61.3166L220.105 60.6276V59.9387Z" fill="#221429"/>
<path d="M192.593 7.57848L195.344 8.26743L198.783 11.7122L199.471 13.0901L195.344 13.7791H193.28L187.778 9.64534L189.153 8.95638H191.905L192.593 11.0232L193.968 11.7122V8.95638H192.593V7.57848Z" fill="#221429"/>
<path d="M195.344 64.0726H198.095L199.471 66.1395L203.598 66.8284L202.91 71.6511L201.534 72.34V68.2063H199.471V69.5842L196.72 71.6511V67.5174L195.344 66.1395V64.0726Z" fill="#221429"/>
<path d="M218.73 57.1832H231.799V59.25L218.042 59.939L218.73 57.1832Z" fill="#221429"/>
<path d="M94.2328 170.86L96.9842 173.616L97.672 174.994L103.175 176.372V180.506L102.487 178.439H97.672L94.2328 174.994V173.616H92.8572L94.2328 170.86Z" fill="#221429"/>
<path d="M56.4015 135.724L58.465 136.413V137.791H59.8407L60.5285 142.613H55.7137L55.0259 141.924V137.791L56.4015 137.102V135.724Z" fill="#221429"/>
<path d="M77.7246 22.7356H78.4125L79.7881 26.8694V32.381L78.4125 33.7589V32.381L75.6611 33.0699V27.5583H77.0368L77.7246 22.7356Z" fill="#221429"/>
<path d="M13.7563 123.322L17.8833 124.7L20.6346 126.078V127.456H15.132L12.3807 126.767V128.834H11.005L10.3172 131.59H8.25366V130.212H9.62933L10.3172 125.389L15.8198 126.078L13.7563 124.011V123.322Z" fill="#221429"/>
<path d="M255.185 77.1627L257.249 77.8517V88.8746L255.873 86.1189L254.497 87.4967L253.809 78.5406L255.185 77.1627Z" fill="#221429"/>
<path d="M245.556 66.8286H249.683V68.8954L252.434 69.5844L253.81 73.0292L252.434 75.096H251.059L246.244 68.2065L245.556 66.8286Z" fill="#221429"/>
<path d="M68.7827 155.014H70.8467V166.037L68.7827 165.348L67.4067 163.282V157.77L68.7827 155.014Z" fill="#221429"/>
<path d="M2.752 135.035L3.44 136.413L2.064 141.924V157.081L0 155.014V142.613L2.064 135.724L2.752 135.035Z" fill="#221429"/>
<path d="M8.25384 186.707L9.6295 189.462L11.0052 192.218L8.94167 198.419H7.56601L6.87817 197.041V191.529L8.25384 186.707Z" fill="#221429"/>
<path d="M221.481 85.4301H225.608L226.296 90.2528L225.608 88.8749L221.481 90.2528V96.4534H220.793V86.1191L221.481 85.4301Z" fill="#221429"/>
<path d="M78.4129 52.3605H81.1642V55.1163H83.9155L82.5398 57.8721V55.8053H81.1642L80.4764 59.939L79.1007 60.6279V63.3838H77.0372L76.3494 65.4506L77.0372 62.0058L79.7885 53.7384H78.4129V52.3605Z" fill="#221429"/>
<path d="M57.0901 189.462L57.7779 190.84H59.1536L61.2171 195.663V204.619L59.8414 203.241L58.4658 197.04L57.0901 191.529V189.462Z" fill="#221429"/>
<path d="M124.497 63.3839H125.872L126.56 65.4507L128.624 64.0728L129.312 70.2734L128.624 74.4071L127.248 73.7181L124.497 64.0728V63.3839Z" fill="#221429"/>
<path d="M7.56543 214.264L10.3168 215.642L13.7559 219.776V223.221L11.0046 221.843L7.56543 217.02V214.264Z" fill="#221429"/>
<path d="M29.5762 116.433H41.2693L46.772 118.5L45.3963 119.878L47.4598 121.945L46.0841 122.634L41.2693 120.567L43.3328 119.189L39.8936 117.811L29.5762 117.122V116.433Z" fill="#221429"/>
<path d="M79.1003 32.381H79.7881L80.4759 46.1601L82.5394 51.6717L79.7881 50.9827V46.849L77.7246 46.1601L79.1003 32.381Z" fill="#221429"/>
<path d="M101.799 33.0698H105.926L107.301 37.8924V44.782H106.613L105.926 35.8256L102.487 35.1366L101.799 44.093H101.111V33.7587L101.799 33.0698Z" fill="#221429"/>
<path d="M125.185 32.381H125.873V44.0932L124.498 50.2938L121.746 57.1833H121.058L121.746 52.3606L123.122 46.849H124.498L125.185 32.381Z" fill="#221429"/>
<path d="M196.032 161.904H196.72V185.328L194.656 186.017L193.968 181.883H196.032V161.904Z" fill="#221429"/>
<path d="M94.9207 155.014L96.9841 156.392V158.459H98.3598V161.215H103.175L105.238 162.593L104.55 165.349L100.423 162.593L96.2963 161.904L94.9207 155.014Z" fill="#221429"/>
<path d="M250.371 115.744H252.434L254.498 119.189L255.185 124.012L254.498 125.39H253.122V123.323H251.746L251.058 121.945V117.811L250.371 115.744Z" fill="#221429"/>
<path d="M77.0374 68.8953L79.7894 69.5843L79.1014 84.7408H78.4134L77.7254 73.7179L77.0374 77.1625H76.3494V70.9621L77.0374 68.8953Z" fill="#221429"/>
<path d="M26.1369 174.994H35.0787L33.703 176.372L29.576 177.061H20.6342V178.439H17.1951L17.8829 176.372L26.1369 175.683V174.994Z" fill="#221429"/>
<path d="M135.503 115.055H136.191L135.503 126.078L134.815 131.589L133.439 132.278L132.751 130.901V124.011H134.127L135.503 115.055Z" fill="#221429"/>
<path d="M76.3494 46.1599L79.7885 46.8488V50.9825L83.2277 52.3604L83.9155 55.1162H81.1642V52.3604H78.4129V50.2936H77.0372L76.3494 46.1599Z" fill="#221429"/>
<path d="M199.47 68.2065H201.534V73.0292H198.782L198.095 75.785L196.031 75.0961L197.407 70.2734L199.47 69.5844V68.2065Z" fill="#221429"/>
<path d="M108.677 8.26743L114.867 10.3343L121.058 14.468V16.5349L117.619 13.7791L111.428 11.7122L110.053 11.0232V9.64533H108.677V8.26743Z" fill="#221429"/>
<path d="M235.238 58.5612L240.053 59.2501L241.428 59.9391L242.116 63.3839L237.301 62.6949L236.614 60.628H234.55L235.238 58.5612Z" fill="#221429"/>
<path d="M118.995 19.9797L121.058 20.6686L125.185 28.9361L124.498 31.6919L123.81 28.9361H122.434V26.1803L119.683 24.8023L118.995 19.9797Z" fill="#221429"/>
<path d="M86.6662 11.7122H88.0419L88.7297 15.157L86.6662 17.2238H85.2905L84.6027 19.2907L83.2271 17.2238L83.9149 14.468L86.6662 11.7122Z" fill="#221429"/>
<path d="M58.4652 207.375L59.8409 210.131L59.153 214.264H57.7774L56.4017 218.398L55.0261 219.087L53.6504 217.709L57.7774 210.131L58.4652 207.375Z" fill="#221429"/>
<path d="M141.005 73.718L141.693 76.4738L139.629 82.6743L138.942 86.8081L137.566 84.7412L138.254 75.7848H141.005V73.718Z" fill="#221429"/>
<path d="M35.0793 233.555L44.709 234.244V235.622L46.7725 237H38.5185L35.0793 235.622V233.555Z" fill="#221429"/>
<path d="M70.8464 148.814L79.7882 149.503L77.7248 150.192V151.57L72.9099 150.881L73.5978 155.703L71.5343 155.014L70.8464 148.814Z" fill="#221429"/>
<path d="M8.94137 124.7H10.317L9.6292 130.212H8.25354V131.59H6.19005V135.724L3.43872 135.035L4.81438 130.901L8.94137 126.767V124.7Z" fill="#221429"/>
<path d="M200.847 24.8024L202.223 26.8692V47.5372H200.847L200.159 49.604L199.471 48.2262L200.847 44.0926V24.8024Z" fill="#221429"/>
<path d="M130.001 68.2065H130.689L131.377 72.3402V86.1189H130.001L128.625 81.2963H130.001V68.2065Z" fill="#221429"/>
<path d="M231.799 57.1832L237.302 57.8721L234.55 60.6279H236.614V62.0058L231.111 60.6279L223.545 59.939V59.25H231.799V57.1832Z" fill="#221429"/>
<path d="M53.6507 218.398H55.0263L52.9628 228.043H52.275V223.91L50.8993 224.599L49.5237 227.355V223.221L53.6507 218.398Z" fill="#221429"/>
<path d="M154.762 33.0698H155.449V39.9593H157.513L156.825 44.093L158.201 44.782H154.762L154.074 44.093V33.7587L154.762 33.0698Z" fill="#221429"/>
<path d="M95.6081 10.3343H104.55V11.7122H108.677L110.053 13.0901H105.238L103.174 12.4011L94.2324 11.7122L95.6081 10.3343Z" fill="#221429"/>
<path d="M14.4439 172.927H15.8195V178.439L14.4439 181.195V178.439L12.3804 179.817L11.0047 182.573L10.3169 181.195L12.3804 176.372H13.7561L14.4439 172.927Z" fill="#221429"/>
<path d="M132.063 122.634H132.751L133.439 130.901L134.815 131.59V137.79L132.751 137.101L132.063 133.657V122.634Z" fill="#221429"/>
<path d="M31.6395 119.878H41.2692L44.0205 121.945H26.8247L28.8882 120.567L31.6395 119.878Z" fill="#221429"/>
<path d="M83.9152 174.994L90.7935 177.061L92.857 179.128H88.0422L80.4761 176.372L83.2274 175.683L83.9152 174.994Z" fill="#221429"/>
<path d="M8.94149 162.593L12.3807 166.038L13.7563 170.861L8.94149 168.794L8.25366 166.727H9.62933V165.349L8.25366 164.66L8.94149 162.593Z" fill="#221429"/>
<path d="M24.7615 121.945L28.2006 122.634L26.1372 125.39L24.7615 129.523L22.698 128.834V122.634L24.7615 121.945Z" fill="#221429"/>
<path d="M10.3169 163.282H12.3804V164.66H13.7561L17.883 170.171V171.549L15.1317 170.171L10.3169 164.66V163.282Z" fill="#221429"/>
<path d="M21.3222 121.256L24.7613 121.945L22.6978 122.634L23.3857 128.834H14.4438V127.456H22.01L21.3222 121.256Z" fill="#221429"/>
<path d="M14.4438 116.433L17.1952 117.122V118.5L20.6343 119.189L21.3222 124.7L18.5708 123.322L17.1952 119.189H15.8195L14.4438 116.433Z" fill="#221429"/>
<path d="M35.0785 117.122H39.8934L44.0204 118.5L43.3325 119.878L33.7029 119.189V117.811L35.0785 117.122Z" fill="#221429"/>
<path d="M198.783 49.6046L199.47 52.3604L198.783 55.1162L198.095 61.3168H197.407L196.719 57.183L193.968 58.5609L195.343 55.8051L198.783 49.6046Z" fill="#221429"/>
<path d="M160.952 2.06686L163.704 2.75582L162.328 3.44477V5.51163L160.264 4.82268V3.44477L152.011 7.57849L149.947 8.9564L151.323 6.20058L156.825 2.75582L160.952 2.06686Z" fill="#221429"/>
<path d="M143.069 22.7356H144.444V30.3141L143.756 27.5583H142.381L141.693 30.3141H139.629L140.317 26.8694L143.069 25.4915V22.7356Z" fill="#221429"/>
<path d="M113.492 15.157L116.931 17.2238L118.994 19.2907V22.7354L118.307 20.6686H114.18L113.492 15.157Z" fill="#221429"/>
<path d="M83.9152 13.0901V15.1569V19.9796L81.8517 22.7354L81.1638 19.9796H79.1003L83.2273 13.779L83.9152 13.0901Z" fill="#221429"/>
<path d="M5.50272 143.302H6.19072V155.014H4.81472V152.947H3.43872L4.81472 143.991L5.50272 143.302Z" fill="#221429"/>
<path d="M105.237 176.372L105.925 177.75H107.301V186.017L103.862 185.328V183.95L100.423 183.261L101.798 182.572L106.613 183.261L105.237 179.128V176.372Z" fill="#221429"/>
<path d="M102.486 159.837H107.989L106.613 164.66L103.174 161.904L98.3591 161.215V160.526L102.486 159.837Z" fill="#221429"/>
<path d="M8.94165 121.945L12.3808 122.634L15.82 124.701V126.079H11.0051L8.94165 124.701V121.945Z" fill="#221429"/>
<path d="M25.4492 117.811H30.9518V119.878L27.5127 120.567H22.01V118.5L25.4492 117.811Z" fill="#221429"/>
<path d="M204.286 46.1599H205.661L204.286 50.2936L201.534 55.8052L199.471 57.1831V53.0494L202.222 51.6715V49.6046H203.598L204.286 46.1599Z" fill="#221429"/>
<path d="M200.847 27.5583H201.535V44.0928L200.159 48.2264H199.471V43.4038L200.159 42.026L200.847 27.5583Z" fill="#221429"/>
<path d="M146.508 13.0901L149.259 13.779L147.883 18.6017L145.132 19.2907V20.6686H143.756L144.444 17.2238H145.82L146.508 13.0901Z" fill="#221429"/>
<path d="M96.9839 8.26743H108.677V9.64533H110.053V11.0232L108.677 11.7122H104.55V10.3343H107.301V8.95638H96.9839V8.26743Z" fill="#221429"/>
<path d="M193.281 153.636H193.969L194.657 157.081L196.033 155.014V159.837L194.657 163.282H193.281V153.636Z" fill="#221429"/>
<path d="M195.344 88.1861H196.032L197.408 98.5201L198.784 103.343L197.408 102.654V101.276H196.032L195.344 99.898V88.1861Z" fill="#221429"/>
<path d="M223.544 90.2527L224.232 91.6307H225.608L224.92 94.3865H226.296V97.1423H223.544L222.169 90.9417L223.544 90.2527Z" fill="#221429"/>
<path d="M77.0371 22.7356L77.7251 25.4914L77.0371 27.5582H75.6611V42.7148H74.9731V26.8693L77.0371 22.7356Z" fill="#221429"/>
<path d="M202.222 18.6017H203.598L205.662 25.4911V28.9357H204.286L202.222 23.4243V18.6017Z" fill="#221429"/>
<path d="M186.402 6.20058L192.593 7.57848V8.95639H193.968V11.7122L191.905 11.0232L191.217 9.64534L187.778 8.95639L186.402 6.20058Z" fill="#221429"/>
<path d="M17.8829 223.91L25.449 227.354L27.5125 228.732L21.3221 228.043L17.1951 226.665L17.8829 223.91Z" fill="#221429"/>
<path d="M55.714 183.951L57.0897 185.328L58.4654 188.084L57.7775 194.285L56.4019 192.218L54.3384 185.328L55.714 183.951Z" fill="#221429"/>
<path d="M105.926 168.105H106.614V175.683L105.926 179.127L106.614 179.816V183.261L105.238 180.505L103.174 177.061V175.683L105.238 173.616L105.926 168.105Z" fill="#221429"/>
<path d="M6.19005 131.59H8.25354L6.87788 139.169H3.43872L4.12655 135.035L5.50222 134.346L6.19005 131.59Z" fill="#221429"/>
<path d="M16.5078 119.189L17.8834 120.567L19.9469 124.012L19.2591 126.078L15.1321 124.012L11.0051 122.634L13.7565 121.945L16.5078 122.634V119.189Z" fill="#221429"/>
<path d="M175.397 0.68895L180.212 1.3779L179.524 3.44476H178.148V4.82267L167.831 4.13372V3.44476L176.085 2.75581L175.397 2.06686V0.68895Z" fill="#221429"/>
<path d="M8.25343 198.419L8.94143 201.174V208.753L10.3174 215.642L8.94143 214.953L7.56543 211.508V200.485L8.25343 198.419Z" fill="#221429"/>
<path d="M52.9624 123.322L56.4016 124.011L57.7772 126.078V128.834L55.0259 128.145V126.767H53.6502L52.9624 123.322Z" fill="#221429"/>
<path d="M6.19045 112.299H11.0053L11.6931 114.366L8.94177 115.055H4.12695L4.81478 112.988L6.19045 112.299Z" fill="#221429"/>
<path d="M193.281 64.0726L194.657 65.4505V67.5173H196.033V73.7177L194.657 76.4734L193.969 74.4066V69.5841L193.281 64.0726Z" fill="#221429"/>
<path d="M77.7254 92.3195H78.4134V103.342H77.0374L76.3494 95.7642L77.7254 92.3195Z" fill="#221429"/>
<path d="M11.6924 115.744L15.1316 117.122L13.0681 117.811H11.0046V119.878L7.56545 120.567L5.50195 118.5L8.25328 117.811L11.6924 117.122V115.744Z" fill="#221429"/>
<path d="M249.683 113.677L252.434 114.366L254.497 116.433L253.81 119.189L252.434 117.811V115.744H250.37V117.122L251.746 117.811L250.37 119.878L249.683 118.5V113.677Z" fill="#221429"/>
<path d="M143.069 34.4477H143.757L144.445 41.3371V47.5375H143.069L142.381 41.3371L143.069 34.4477Z" fill="#221429"/>
<path d="M91.481 36.5145L94.233 37.8923V42.7149H91.481V36.5145Z" fill="#221429"/>
<path d="M125.873 19.9797L127.249 21.3576L129.312 26.1803L130 28.9361H127.249L125.873 22.7355V19.9797Z" fill="#221429"/>
<path d="M185.026 3.44476L189.153 4.82267L192.592 7.57848H189.153L186.402 6.20058L187.777 8.95639L185.026 7.57848V3.44476Z" fill="#221429"/>
<path d="M11.0046 132.279L11.6924 133.657L11.0046 137.791L10.3168 140.546H7.56543L8.25326 136.413L11.0046 132.279Z" fill="#221429"/>
<path d="M44.7087 119.189H48.8357L50.8992 120.567L51.5871 123.323L46.7722 121.945V120.567L44.7087 119.878V119.189Z" fill="#221429"/>
<path d="M200.847 47.5378L202.222 49.6047V51.6715L200.159 53.0494L199.471 57.8721L198.095 55.1163L200.159 48.9157L200.847 47.5378Z" fill="#221429"/>
<path d="M129.313 41.3372L130.001 44.0929L129.313 47.5376H126.561V42.0261L127.249 44.0929H128.625L129.313 41.3372Z" fill="#221429"/>
<path d="M157.513 38.5812L159.577 39.2701V44.7816L156.825 44.0927V39.2701L157.513 38.5812Z" fill="#221429"/>
<path d="M149.947 15.157V17.2238L148.571 19.9796H147.196L145.82 24.8023L145.132 23.4244L146.508 17.9128L147.883 15.8459L149.947 15.157Z" fill="#221429"/>
<path d="M165.767 0.68895H174.021L171.27 2.75581L164.391 4.13372V2.75581L165.767 1.3779V0.68895Z" fill="#221429"/>
<path d="M17.1951 168.793L21.3221 170.86L22.0099 172.927L24.0734 173.616H19.9464L17.8829 172.238L17.1951 168.793Z" fill="#221429"/>
<path d="M57.0894 124.7L59.8407 126.767L59.1529 130.901V132.968L55.7137 129.523L55.0259 128.145L57.7772 128.834L57.0894 124.7Z" fill="#221429"/>
<path d="M245.556 62.6946L247.619 63.3836L251.059 66.8284L253.122 68.8952L252.434 70.2731L249.683 68.8952L248.995 67.5173L246.932 66.8284L245.556 62.6946Z" fill="#221429"/>
<path d="M132.751 117.811L135.503 118.5L134.815 124.7L132.751 124.011V117.811Z" fill="#221429"/>
<path d="M226.296 92.3195H226.984V97.8311L226.296 98.5201H222.169V94.3864H223.544V97.1422H226.296V92.3195Z" fill="#221429"/>
<path d="M246.243 68.2065L249.682 71.6513L251.058 73.7182L250.37 76.474L248.994 75.785L248.306 72.3403L246.243 71.6513V68.2065Z" fill="#221429"/>
<path d="M196.72 56.494H197.408V60.6276L193.968 62.0055V58.5608L196.72 56.494Z" fill="#221429"/>
<path d="M77.7246 150.192L83.9151 150.881L86.6664 152.259L84.6029 152.948L78.4124 152.259L77.7246 150.192Z" fill="#221429"/>
<path d="M93.5447 11.7122H96.296V13.0901H94.2325V14.468L90.7934 15.8459V17.2238L89.4177 16.5349L91.4812 13.0901H93.5447V11.7122Z" fill="#221429"/>
<path d="M59.1532 161.215L60.5288 163.282L59.841 166.038L56.4019 167.416L57.0897 163.971L59.1532 161.215Z" fill="#221429"/>
<path d="M85.9783 151.57L92.1688 153.637V154.326L83.9148 153.637L81.8513 152.259H85.9783V151.57Z" fill="#221429"/>
<path d="M249.683 75.7847H250.37V79.2295H251.746L251.058 84.7411L249.683 82.6743L248.307 79.2295L247.619 76.4737L248.995 77.8516L249.683 75.7847Z" fill="#221429"/>
</svg>
