<svg width="211" height="134" viewBox="0 0 211 134" fill="none" xmlns="http://www.w3.org/2000/svg">
<g clip-path="url(#clip0_646_361)">
<path d="M51.95 0H60.35L65.6 3L68.75 9L69.8 19L67.7 32L62.45 42L55.1 50L43.55 57L50.9 63L57.2 74L66.65 83L68.75 84L70.85 78L79.25 62L82.4 56L81.35 50L79.25 46L80.3 36L84.5 30L88.7 29L91.85 33V44L90.8 47L95 48V54L91.85 57L86.6 59L76.1 78L71.9 86L69.8 88L63.5 87L57.2 80L55.1 98L54.05 100L57.2 99H67.7L72.95 102L75.05 105L74 109L70.85 111H59.3L51.95 109L49.85 120L48.8 124L66.65 125L113.9 127L128.6 128L129.65 115L134.9 95L137 88L128.6 95H123.35L122.3 94L120.2 71V61L108.65 59L101.3 55L99.2 51V45L100.25 43L106.55 44L111.8 48L114.95 53V56L121.25 57L124.4 61L127.55 90L151.7 67L146.45 62L140.15 55L135.95 44V28L138.05 19L134.9 18L135.95 14L147.5 10H158L168.5 14L175.85 21L180.05 33V49L175.85 59L168.5 67L172.7 69L176.9 79L179 86L183.2 74L189.5 63L197.9 56H206.3L210.5 60L209.45 66L202.1 69H190.55L188.45 75L184.25 86L182.15 92L179 93L175.85 128H181.1V131L172.7 133L169.55 134L166.4 132L86.6 130L56.15 128L37.25 126L19.4 127L1.55 131L0.5 128L12.05 124L8.9 123V112L12.05 87L16.25 72L23.6 58L27.8 55L23.6 51L22.55 48V36L27.8 24L34.1 13L38.3 9H40.4L42.5 5L48.8 1L51.95 0ZM53 4L46.7 7L44.6 10L45.65 14H43.55L36.2 24L34.1 29V36L36.2 50L32 52L33.05 54L41.45 53L51.95 47L60.35 38L64.55 28L65.6 15L62.45 6L59.3 4H53ZM148.55 14L144.35 15L140.15 27V43L143.3 52L152.75 62L156.95 64H164.3L169.55 60L174.8 52L175.85 49V34L172.7 24L168.5 19L158 14H148.55ZM86.6 34L83.45 40L84.5 48L86.6 47L87.65 44V34H86.6ZM103.4 48L105.5 53L110.75 55L107.6 50L103.4 48ZM88.7 51L87.65 53L90.8 52L88.7 51ZM33.05 58L28.85 60L27.8 66L25.7 76L26.75 83L38.3 109L43.55 107L49.85 103L51.95 91V75L47.75 66L40.4 60L33.05 58ZM195.8 62L194.75 65H198.95L197.9 62H195.8ZM155.9 69L150.65 73L144.35 83L139.1 95L133.85 115L131.75 128H166.4L167.45 113V99L165.35 82V75L168.5 73L166.4 69H155.9ZM22.55 84L20.45 89L19.4 95V117L18.35 122L16.25 124L44.6 123L47.75 112V109L43.55 111L37.25 115L23.6 84H22.55ZM57.2 103L54.05 106L59.3 107H69.8L68.75 104L66.65 103H57.2Z" fill="#221429"/>
<path d="M147.499 10H157.999L168.499 14L175.849 21L180.049 33V49L175.849 59L168.499 67L172.699 69L176.899 79L178.999 86L183.199 74L189.499 63L197.899 56H206.299L210.499 60L209.449 66L202.099 69H190.549L188.449 75L184.249 86L182.149 92L178.999 93L175.849 128H181.099V131L172.699 133L169.549 134L166.399 132L118.099 131L93.9492 130L94.9992 127H113.899L128.599 128L129.649 115L134.899 95L136.999 88L128.599 95H123.349L122.299 94L120.199 71V61L108.649 59L101.299 55L99.1992 51V45L100.249 43L106.549 44L111.799 48L114.949 53V56L121.249 57L124.399 61L127.549 90L151.699 67L146.449 62L140.149 55L135.949 44V28L138.049 19L134.899 18L135.949 14L147.499 10ZM148.549 14L144.349 15L140.149 27V43L143.299 52L152.749 62L156.949 64H164.299L169.549 60L174.799 52L175.849 49V34L172.699 24L168.499 19L157.999 14H148.549ZM103.399 48L105.499 53L110.749 55L107.599 50L103.399 48ZM195.799 62L194.749 65H198.949L197.899 62H195.799ZM155.899 69L150.649 73L144.349 83L139.099 95L133.849 115L131.749 128H166.399L167.449 113V99L165.349 82V75L168.499 73L166.399 69H155.899Z" fill="#221429"/>
<path d="M168.501 72L171.651 76L173.751 82V108L171.651 128H166.401V99L164.301 82V75L168.501 72Z" fill="#FD2E35"/>
<path d="M38.3 9H44.6L45.65 14H43.55L41.45 18L36.2 27L35.15 29V36L36.2 41V50L30.95 53V51H28.85L26.75 46V26L34.1 13L38.3 9Z" fill="#FD2E35"/>
<path d="M26.7516 61L29.9016 62L25.7016 79L23.6016 80L20.4516 95V117L18.3516 123L13.1016 124V107L15.2016 91L19.4016 74L25.7016 62L26.7516 61Z" fill="#FD2E35"/>
<path d="M23.5984 58L24.6484 60H26.7484L24.6484 65L19.3984 77L15.1984 96L13.0984 123H8.89844V112L12.0484 87L16.2484 72L23.5984 58Z" fill="#221429"/>
<path d="M173.748 97H174.798V124L173.748 127L181.098 128V131L172.698 133L169.548 134L166.398 132V128H171.648V118L173.748 97Z" fill="#221429"/>
<path d="M38.3 9H44.6L38.3 17L30.95 28L27.8 35H26.75V26L34.1 13L38.3 9Z" fill="#221429"/>
<path d="M10.9984 93H12.0484L13.0984 123H8.89844V112L10.9984 93Z" fill="#221429"/>
<path d="M22.5508 60L23.6008 62L19.4008 73L14.1508 88L13.1008 93H12.0508L13.1008 82L18.3508 67L22.5508 60Z" fill="#221429"/>
<path d="M35.15 17L36.2 20L29.9 30L27.8 35H26.75V26L29.9 20L35.15 17Z" fill="#221429"/>
<path d="M15.2008 88L16.2508 91L14.1508 107L13.1008 121H12.0508V93L15.2008 88Z" fill="#221429"/>
</g>
<defs>
<clipPath id="clip0_646_361">
<rect width="210" height="134" fill="white" transform="translate(0.5)"/>
</clipPath>
</defs>
</svg>
