<svg width="640" height="159" viewBox="0 0 640 159" fill="none" xmlns="http://www.w3.org/2000/svg">
<path d="M0 156.204V22H15.0823L65.729 128.897L116.097 22H131.365V156.111H115.631V58.4401L70.1048 156.204H61.2602L15.734 58.4401V156.204H0Z" fill="#221429"/>
<path d="M148.161 156.204L193.035 22H216.124L260.999 156.204H243.775L201.787 31.6925H207.001L165.385 156.204H148.161ZM169.76 124.797V109.233H239.4V124.797H169.76Z" fill="#221429"/>
<path d="M277.665 156.204V22H319.002C320.368 22 322.757 22.0311 326.171 22.0932C329.585 22.1553 332.843 22.4039 335.946 22.8388C346.312 24.2057 354.97 27.9957 361.921 34.2088C368.935 40.3599 374.211 48.1884 377.749 57.6946C381.286 67.2007 383.055 77.6698 383.055 89.102C383.055 100.534 381.286 111.003 377.749 120.51C374.211 130.016 368.935 137.875 361.921 144.088C354.97 150.239 346.312 153.998 335.946 155.365C332.843 155.738 329.553 155.987 326.078 156.111C322.664 156.173 320.305 156.204 319.002 156.204H277.665ZM294.703 140.361H319.002C321.361 140.361 323.999 140.298 326.916 140.174C329.833 139.988 332.378 139.708 334.55 139.335C341.874 137.968 347.801 134.893 352.332 130.109C356.863 125.325 360.184 119.36 362.294 112.215C364.404 105.07 365.459 97.3655 365.459 89.102C365.459 80.6521 364.373 72.8546 362.201 65.7095C360.09 58.5644 356.77 52.6308 352.239 47.9088C347.708 43.1868 341.812 40.1735 334.55 38.8687C332.378 38.4338 329.802 38.1542 326.823 38.0299C323.843 37.9057 321.236 37.8435 319.002 37.8435H294.703V140.361Z" fill="#221429"/>
<path d="M404.406 156.204V22H420.978V81.1803H491.548V22H508.12V156.204H491.548V96.9306H420.978V156.204H404.406Z" fill="#221429"/>
<path d="M587.119 159C576.754 159 567.599 156.856 559.654 152.569C551.71 148.282 545.472 142.287 540.941 134.582C536.472 126.816 534.238 117.714 534.238 107.276V22.0932L550.996 22V105.878C550.996 112.215 552.051 117.745 554.161 122.467C556.334 127.127 559.189 131.01 562.726 134.116C566.264 137.223 570.143 139.553 574.364 141.106C578.647 142.597 582.898 143.343 587.119 143.343C591.401 143.343 595.684 142.566 599.967 141.013C604.249 139.46 608.129 137.161 611.604 134.116C615.142 131.01 617.966 127.095 620.076 122.373C622.187 117.651 623.242 112.153 623.242 105.878V22H640V107.276C640 117.651 637.734 126.723 633.204 134.489C628.735 142.256 622.528 148.282 614.583 152.569C606.639 156.856 597.484 159 587.119 159Z" fill="#221429"/>
</svg>
